{"title":"Gotham S02E11 1080p HDTV X264-DIMENSION[rartv]","uid":12889353,"size":2162231894,"categoryP":"video","categoryS":"hd___tv_shows","magnet":"?xt=urn:btih:ed9a76e272c075f522aa71391a33b0272894dd1e&amp;dn=Gotham+S02E11+1080p+HDTV+X264-DIMENSION%5Brartv%5D&amp;tr=udp%3A%2F%2Ftracker.leechers-paradise.org%3A6969&amp;tr=udp%3A%2F%2Fzer0day.ch%3A1337&amp;tr=udp%3A%2F%2Fopen.demonii.com%3A1337&amp;tr=udp%3A%2F%2Ftracker.coppersurfer.tk%3A6969&amp;tr=udp%3A%2F%2Fexodus.desync.com%3A6969","seeders":0,"leechers":0,"uploader":"cheerfulcaca","files":3,"time":1449092058,"description":"SEASON 2, EPISODE 11 &quot;WORSE THAN A CRIME&quot; BRIEF SYNOPSIS:\n\nJim Gordon turns to dangerous allies for assistance when Bruce Wayne is abducted.\n\n\nSERIES INFO:\n\n\n8/10·IMDb\n7.6/10·TV.com\n\nJim Gordon is a rising detective in corrupt Gotham City, where his late father was a successful district attorney. Brave, honest and determined to prove himself, Jim hopes to return the city to the glamorous, purer version he remembers as a child. He and his partner, legendary Detective Harvey Bullock, must navigate the dirty politics of Gotham's justice system, even as they tackle a high-profile case, the murder of billionaires Thomas and Martha Wayne. Gordon becomes a friend to their young orphan, Bruce.\n\n\nMEDIA INFO:\n\n\nGeneral:\n\nUnique ID                                : 214254322610217191450073109259469067169 (0xA12FE1AE1BE576B7B8BD5D68109A13A1)\nComplete name                            : Gotham.S02E11.1080p.HDTV.X264-DIMENSION.mkv\nFormat                                   : Matroska\nFormat version                           : Version 4 / Version 2\nFile size                                : 2.01 GiB\nDuration                                 : 43mn 33s\nOverall bit rate                         : 6 618 Kbps\nEncoded date                             : UTC 2015-12-02 06:23:53\nWriting application                      : mkvmerge v8.5.2 ('Crosses') 64bit\nWriting library                          : libebml v1.3.3 + libmatroska v1.4.4\n\nVideo:\n\nID                                       : 2\nFormat                                   : AVC\nFormat/Info                              : Advanced Video Codec\nFormat profile                           :   \nFormat settings, CABAC                   : Yes\nFormat settings, ReFrames                : 4 frames\nCodec ID                                 : V_MPEG4/ISO/AVC\nDuration                                 : 43mn 33s\nBit rate                                 : 6 168 Kbps\nWidth                                    : 1 920 pixels\nHeight                                   : 1 080 pixels\nDisplay aspect ratio                     : 16:9\nFrame rate mode                          : Constant\nFrame rate                               : 23.976 (24000/1001) fps\nColor space                              : YUV\nChroma subsampling                       : 4:2:0\nBit depth                                : 8 bits\nScan type                                : Progressive\nBits/(Pixel*Frame)                       : 0.124\nStream size                              : 1.88 GiB (93%)\nWriting library                          : x264 core 148 r2638 7599210\nEncoding settings                        : cabac=1 / ref=4 / deblock=1:-3:-3 / analyse=0x3:0x133 / me=umh / subme=11 / psy=1 / psy_rd=1.00:0.00 / mixed_ref=1 / me_range=32 / chroma_me=1 / trellis=2 / 8x8dct=1 / cqm=0 / deadzone=21,11 / fast_pskip=0 / chroma_qp_offset=-2 / threads=20 / lookahead_threads=2 / sliced_threads=0 / nr=0 / decimate=1 / interlaced=0 / bluray_compat=0 / constrained_intra=0 / bframes=5 / b_pyramid=2 / b_adapt=2 / b_bias=0 / direct=3 / weightb=1 / open_gop=0 / weightp=2 / keyint=250 / keyint_min=23 / scenecut=40 / intra_refresh=0 / rc_lookahead=60 / rc=crf / mbtree=1 / crf=17.0 / qcomp=0.60 / qpmin=0 / qpmax=69 / qpstep=4 / ip_ratio=1.40 / aq=1:1.00\nLanguage                                 : English\nDefault                                  : Yes\nForced                                   : No\nColor range                              : Limited\nMatrix coefficients                      : BT.709\n\nAudio:\n\nID                                       : 3\nFormat                                   : AC-3\nFormat/Info                              : Audio Coding 3\nMode extension                           : CM (complete main)\nFormat settings, Endianness              : Big\nCodec ID                                 : A_AC3\nDuration                                 : 43mn 33s\nBit rate mode                            : Constant\nBit rate                                 : 448 Kbps\nChannel(s)                               : 6 channels\nChannel positions                        : Front: L C R, Side: L R, LFE\nSampling rate                            : 48.0 KHz\nFrame rate                               : 31.250 fps (1536 spf)\nCompression mode                         : Lossy\nStream size                              : 140 MiB (7%)\nDefault                                  : Yes\nForced                                   : No\n\nText:\n\nID                                       : 1\nFormat                                   : UTF-8\nCodec ID                                 : S_TEXT/UTF8\nCodec ID/Info                            : UTF-8 Plain Text\nDuration                                 : 42mn 40s\nBit rate                                 : 56 bps\nCount of elements                        : 709\nStream size                              : 17.6 KiB (0%)\nDefault                                  : Yes\nForced                                   : No \nhttps://rarbg.to","torrent":{"xt":"urn:btih:ed9a76e272c075f522aa71391a33b0272894dd1e","amp;dn":"Gotham+S02E11+1080p+HDTV+X264-DIMENSION%5Brartv%5D","amp;tr":["udp%3A%2F%2Ftracker.leechers-paradise.org%3A6969","udp%3A%2F%2Fzer0day.ch%3A1337","udp%3A%2F%2Fopen.demonii.com%3A1337","udp%3A%2F%2Ftracker.coppersurfer.tk%3A6969","udp%3A%2F%2Fexodus.desync.com%3A6969"],"infoHash":"ed9a76e272c075f522aa71391a33b0272894dd1e","infoHashBuffer":{"type":"Buffer","data":[237,154,118,226,114,192,117,245,34,170,113,57,26,51,176,39,40,148,221,30]},"announce":[],"urlList":[]}}